<svg id="Layer_1" data-name="Layer 1" xmlns="http://www.w3.org/2000/svg" viewBox="0 0 359.89 80.22"><defs><style>.cls-1{fill:#9f0000;}.cls-2,.cls-3{fill:#fff;}.cls-3{font-size:75px;font-family:Norwester-Regular, Norwester;}.cls-4{letter-spacing:-0.03em;}.cls-5{letter-spacing:0em;}</style></defs><title>news1</title><rect class="cls-1" x="1.5" y="1.5" width="24.75" height="75.59"/><path class="cls-2" d="M156.75,67v72.59H135V67h21.75m3-3H132v78.59h27.75V64Z" transform="translate(-132 -64)"/><polygon class="cls-1" points="36.5 77.09 36.5 1.5 292.71 1.5 214.09 77.09 36.5 77.09"/><path class="cls-2" d="M421,67l-75.49,72.59H170V67H421m7.45-3H167v78.59H346.7L428.43,64Z" transform="translate(-132 -64)"/><polygon class="cls-1" points="226.77 77.09 305.39 1.5 324.44 1.5 245.82 77.09 226.77 77.09"/><path class="cls-2" d="M452.71,67l-75.49,72.59H362.5L438,67h14.72m7.45-3H436.78L355,142.59h23.38L460.16,64Z" transform="translate(-132 -64)"/><polygon class="cls-1" points="258.5 77.09 337.12 1.5 356.17 1.5 277.56 77.09 258.5 77.09"/><path class="cls-2" d="M484.45,67,409,139.59H394.23L469.72,67h14.72m7.45-3H468.51l-81.73,78.59h23.38L491.89,64Z" transform="translate(-132 -64)"/><text class="cls-3" transform="translate(46.03 68.67)">N<tspan class="cls-4" x="39.52" y="0">E</tspan><tspan class="cls-5" x="74.7" y="0">WS</tspan></text></svg>