<svg id="Layer_1" data-name="Layer 1" xmlns="http://www.w3.org/2000/svg" viewBox="0 0 760.2 70.88"><defs><style>.cls-1{fill:#9e1c20;}.cls-2,.cls-3{fill:#fff;}.cls-3{font-size:60.35px;font-family:Norwester-Regular, Norwester;}.cls-4{letter-spacing:-0.02em;}.cls-5{letter-spacing:-0.03em;}</style></defs><title>week</title><rect class="cls-1" x="2" y="2" width="27.86" height="66.88"/><path class="cls-2" d="M65.19,318.83v62.88H41.33V318.83H65.19m4-4H37.33v70.88H69.19V314.83Z" transform="translate(-37.33 -314.83)"/><polygon class="cls-1" points="46.67 68.88 46.67 2 609.69 2.16 540.11 68.88 46.67 68.88"/><path class="cls-2" d="M86,318.84l556.05.16-65.42,62.72H86V318.84m-4-4v70.88H578.24L652,315l-570-.17Z" transform="translate(-37.33 -314.83)"/><polygon class="cls-1" points="565.01 68.88 634.81 2 682.56 2 612.76 68.88 565.01 68.88"/><path class="cls-2" d="M714.92,318.83l-65.63,62.88h-42l65.63-62.88h42m10-4H671.34l-74,70.88H650.9l74-70.88Z" transform="translate(-37.33 -314.83)"/><polygon class="cls-1" points="637.66 68.88 707.47 2 755.22 2 685.41 68.88 637.66 68.88"/><path class="cls-2" d="M787.57,318.83l-65.63,62.88H680l65.63-62.88h42m10-4H744l-74,70.88h53.53l74-70.88Z" transform="translate(-37.33 -314.83)"/><text class="cls-3" transform="translate(52.8 60.46)">RE<tspan class="cls-4" x="60.95" y="0">L</tspan><tspan class="cls-5" x="89.32" y="0">EA</tspan><tspan x="151.17" y="0">SE THIS WEEK</tspan></text></svg>