<svg id="Layer_1" enable-background="new 0 0 512 512" height="512" viewBox="0 0 512 512" width="512" xmlns="http://www.w3.org/2000/svg"><path d="m351.912 100.57v310.86c0 29.54-24.034 53.57-53.579 53.57h-244.754c-29.545 0-53.579-24.03-53.579-53.57v-310.86c0-29.54 24.034-53.57 53.579-53.57h244.753c29.546 0 53.58 24.03 53.58 53.57z" fill="#ff5c5c"/><path d="m351.912 100.57v310.86c0 29.54-24.034 53.57-53.579 53.57h-122.372v-418h122.371c29.546 0 53.58 24.03 53.58 53.57z" fill="#e20059"/><path d="m306.914 107.61v170.71l-130.953 28.62-130.963 28.62v-227.95c0-8.28 6.711-15 15.003-15h231.911c8.291 0 15.002 6.72 15.002 15z" fill="#fff"/><path d="m306.914 107.61v170.71l-130.953 28.62v-214.33h115.95c8.292 0 15.003 6.72 15.003 15z" fill="#c8ffff"/><path d="m306.914 278.32v127.49c0 8.29-6.711 15-15.003 15h-231.91c-8.291 0-15.003-6.71-15.003-15v-70.25l59.911-69.33c5.441-5.61 14.282-6.11 20.314-1.14l38.067 23.12 12.672-17.44 47.148-64.9c2.73-3.76 7.041-6.04 11.692-6.18 4.661-.15 9.092 1.89 12.042 5.48z" fill="#ace233"/><path d="m110.931 135.304c-20.16 0-36.562 16.373-36.562 36.499 0 20.125 16.402 36.498 36.562 36.498s36.562-16.373 36.562-36.498c0-20.126-16.401-36.499-36.562-36.499z" fill="#ffdc48"/><path d="m512 256.12c0 113.91-26.285 202.47-26.545 203.35-.99 3.28-4.021 5.53-7.451 5.53h-22.934c-3.441 0-6.461-2.25-7.451-5.53-.26-.88-26.545-89.44-26.545-203.35 0-42.25 10.342-79.14 14.843-93.18l30.615-40 30.625 40c4.491 14.04 14.843 50.94 14.843 93.18z" fill="#ffdc48"/><path d="m512 256.12c0 113.91-26.285 202.47-26.545 203.35-.99 3.28-4.021 5.53-7.451 5.53h-11.472v-342.06l30.625 40c4.491 14.04 14.843 50.94 14.843 93.18z" fill="#ffc200"/><path d="m306.914 278.32v127.49c0 8.29-6.711 15-15.003 15h-115.95v-150.04l47.148-64.9c2.73-3.76 7.041-6.04 11.692-6.18 4.661-.15 9.092 1.89 12.042 5.48z" fill="#00cb75"/><path d="m512 126.92c0 1.23-.11 24.17-14.843 36.02h-61.241c-14.783-11.89-14.853-34.94-14.843-36.03 0-14.75 6.781-32.34 20.164-52.22 9.662-14.36 19.233-24.57 19.633-25 1.47-1.56 3.521-2.45 5.661-2.45 2.15 0 4.201.89 5.671 2.45.4.43 9.962 10.64 19.623 25 13.384 19.87 20.165 37.44 20.175 52.23z" fill="#2a5959"/><path d="m512 126.92c0 1.23-.11 24.17-14.843 36.02h-30.625v-115.7c2.15 0 4.201.89 5.671 2.45.4.43 9.962 10.64 19.623 25 13.383 19.87 20.164 37.44 20.174 52.23z" fill="#2b4747"/></svg>