<svg id="Layer_1" enable-background="new 0 0 512 512" height="512" viewBox="0 0 512 512" width="512" xmlns="http://www.w3.org/2000/svg"><path d="m121.269 474.401c-.994 9.583 2.136 19.184 8.588 26.339 6.451 7.156 15.678 11.26 25.313 11.26 17.519 0 32.093-13.14 33.9-30.565l14.521-139.973h-68.531z" fill="#ffb454"/><path d="m199.653 0c-17.519 0-32.093 13.14-33.9 30.566l-3.523 33.973h68.529l2.796-26.94c.994-9.583-2.137-19.184-8.589-26.339s-15.678-11.26-25.313-11.26z" fill="#ffb454"/><path d="m390.731 474.401-13.79-132.939h-68.531l14.521 139.973c1.808 17.425 16.382 30.565 33.9 30.565 9.635 0 18.861-4.104 25.313-11.26s9.582-16.756 8.587-26.339z" fill="#ff7d47"/><path d="m346.247 30.565c-1.808-17.425-16.382-30.565-33.901-30.565-9.634 0-18.86 4.104-25.312 11.259-6.452 7.156-9.583 16.756-8.589 26.34l2.796 26.939h68.529z" fill="#ff7d47"/><path d="m474.82 84.71v236.58c0 19.39-15.77 35.17-35.16 35.17h-367.32c-19.39 0-35.16-15.78-35.16-35.17v-236.58c0-19.39 15.77-35.17 35.16-35.17h367.32c19.39 0 35.16 15.78 35.16 35.17z" fill="#ace233"/><path d="m474.82 84.71v236.58c0 19.39-15.77 35.17-35.16 35.17h-183.66v-306.92h183.66c19.39 0 35.16 15.78 35.16 35.17z" fill="#00cb75"/><path d="m464.82 401.02c0 8.28-6.71 15-15 15h-387.64c-8.29 0-15-6.72-15-15 0-8.29 6.71-15 15-15h387.64c8.29 0 15 6.71 15 15z" fill="#2a5959"/><path d="m158.445 146.339c-2.16-5.923-7.792-9.861-14.093-9.861h-.051c-6.321.021-11.951 4.004-14.076 9.958l-32.898 92.166c-2.785 7.802 1.282 16.385 9.084 19.169 7.803 2.784 16.385-1.282 19.17-9.084l1.763-4.939h34.688l1.836 5.035c2.22 6.087 7.97 9.866 14.094 9.865 1.706 0 3.442-.293 5.138-.912 7.783-2.838 11.792-11.448 8.954-19.231zm-20.393 67.408 6.45-18.071 6.59 18.071z" fill="#fff"/><path d="m303.24 174.52c0-20.98-17.07-38.04-38.04-38.04h-41.44c-8.28 0-15 6.71-15 15v92.16c0 8.29 6.72 15 15 15h41.44c20.97 0 38.04-17.06 38.04-38.04 0-8.65-2.91-16.64-7.79-23.04 4.88-6.4 7.79-14.39 7.79-23.04zm-38.04 54.12h-26.44v-16.08h26.44c4.43 0 8.04 3.61 8.04 8.04 0 4.44-3.61 8.04-8.04 8.04zm0-46.08h-26.44v-16.08h26.44c4.43 0 8.04 3.61 8.04 8.04s-3.61 8.04-8.04 8.04z" fill="#fff"/><path d="m396.966 228.644h-18.393c-17.139 0-31.082-13.944-31.082-31.083s13.943-31.083 31.082-31.083h18.393c8.284 0 15-6.716 15-15s-6.716-15-15-15h-18.393c-33.681 0-61.082 27.402-61.082 61.083s27.401 61.083 61.082 61.083h18.393c8.284 0 15-6.716 15-15s-6.716-15-15-15z" fill="#f4f1f1"/><path d="m295.45 197.56c4.88 6.4 7.79 14.39 7.79 23.04 0 20.98-17.07 38.04-38.04 38.04h-9.2v-30h9.2c4.43 0 8.04-3.6 8.04-8.04 0-4.43-3.61-8.04-8.04-8.04h-9.2v-30h9.2c4.43 0 8.04-3.61 8.04-8.04s-3.61-8.04-8.04-8.04h-9.2v-30h9.2c20.97 0 38.04 17.06 38.04 38.04 0 8.65-2.91 16.64-7.79 23.04z" fill="#f4f1f1"/><path d="m464.82 401.02c0 8.28-6.71 15-15 15h-193.82v-30h193.82c8.29 0 15 6.71 15 15z" fill="#2b4747"/></svg>