<svg id="Layer_1" enable-background="new 0 0 512 512" height="512" viewBox="0 0 512 512" width="512" xmlns="http://www.w3.org/2000/svg"><path d="m333.69 80.34c-19.35-51.81-46.94-80.34-77.69-80.34s-58.34 28.53-77.69 80.34c-17.61 47.16-27.31 109.54-27.31 175.66s9.7 128.5 27.31 175.66c19.35 51.81 46.94 80.34 77.69 80.34s58.34-28.53 77.69-80.34c17.61-47.16 27.31-109.54 27.31-175.66s-9.7-128.5-27.31-175.66zm-28.1 340.83c-14.23 38.09-32.77 60.83-49.59 60.83s-35.36-22.74-49.59-60.83c-16.39-43.89-25.41-102.54-25.41-165.17s9.02-121.28 25.41-165.17c14.23-38.09 32.77-60.83 49.59-60.83s35.36 22.74 49.59 60.83c16.39 43.89 25.41 102.54 25.41 165.17s-9.02 121.28-25.41 165.17z" fill="#ffdc48"/><path d="m361 256c0 66.12-9.7 128.5-27.31 175.66-19.35 51.81-46.94 80.34-77.69 80.34v-30c16.82 0 35.36-22.74 49.59-60.83 16.39-43.89 25.41-102.54 25.41-165.17s-9.02-121.28-25.41-165.17c-14.23-38.09-32.77-60.83-49.59-60.83v-30c30.75 0 58.34 28.53 77.69 80.34 17.61 47.16 27.31 109.54 27.31 175.66z" fill="#ffc200"/><path d="m428.5 256c6.66-6.85 12.83-13.71 18.47-20.55 35.2-42.66 46.11-80.82 30.73-107.45-15.37-26.63-53.88-36.26-108.42-27.11-34.51 5.79-73.49 18.57-113.28 36.93-39.79-18.36-78.77-31.14-113.28-36.93-54.54-9.15-93.05.48-108.42 27.11-15.38 26.63-4.47 64.79 30.73 107.45 5.64 6.84 11.81 13.7 18.47 20.55-6.66 6.85-12.83 13.71-18.47 20.55-35.2 42.66-46.11 80.82-30.73 107.45 11.58 20.07 36.3 30.48 71.12 30.48 11.39 0 23.86-1.11 37.3-3.37 34.51-5.79 73.49-18.57 113.28-36.93 39.79 18.36 78.77 31.14 113.28 36.93 13.45 2.26 25.91 3.37 37.3 3.37 34.81 0 59.54-10.41 71.12-30.48 15.38-26.63 4.47-64.79-30.73-107.45-5.64-6.84-11.81-13.7-18.47-20.55zm-54.26-125.53c12.07-2.02 23.12-3.01 32.91-3.01 22.76 0 38.69 5.35 44.57 15.54 8.41 14.57-2.01 42-27.89 73.36-5.18 6.29-10.87 12.6-17.01 18.91-27.78-24.81-61.37-48.87-98.32-70.2-5.83-3.37-11.68-6.63-17.54-9.78 29.4-12.04 57.74-20.53 83.28-24.82zm-313.96 12.53c5.88-10.19 21.81-15.54 44.57-15.54 9.79 0 20.84.99 32.91 3.01 25.54 4.29 53.88 12.78 83.28 24.82-5.86 3.15-11.71 6.41-17.54 9.78-36.95 21.33-70.54 45.39-98.32 70.2-6.14-6.31-11.83-12.62-17.01-18.91-25.88-31.36-36.3-58.79-27.89-73.36zm77.48 238.53c-40.11 6.72-69.07 2.04-77.48-12.53s2.01-42 27.89-73.36c5.18-6.29 10.87-12.6 17.01-18.91 27.78 24.81 61.37 48.87 98.32 70.2 5.83 3.37 11.68 6.63 17.54 9.78-29.4 12.04-57.74 20.53-83.28 24.82zm80.74-60.58c-34.44-19.88-65.67-42.12-91.52-64.95 25.85-22.83 57.08-45.07 91.52-64.95 12.48-7.21 25.03-13.9 37.5-20.02 12.47 6.12 25.02 12.81 37.5 20.02 34.44 19.88 65.67 42.12 91.52 64.95-25.85 22.83-57.08 45.07-91.52 64.95-12.48 7.21-25.03 13.9-37.5 20.02-12.47-6.12-25.02-12.81-37.5-20.02zm233.22 48.05c-8.41 14.57-37.37 19.25-77.48 12.53-25.54-4.29-53.88-12.78-83.28-24.82 5.86-3.15 11.71-6.41 17.54-9.78 36.95-21.33 70.54-45.39 98.32-70.2 6.14 6.31 11.83 12.62 17.01 18.91 25.88 31.36 36.3 58.79 27.89 73.36z" fill="#ffb454"/><circle cx="256" cy="256" fill="#2a5959" r="38.84"/><path d="m428.5 256c6.66-6.85 12.83-13.71 18.47-20.55 35.2-42.66 46.11-80.82 30.73-107.45-15.37-26.63-53.88-36.26-108.42-27.11-34.51 5.79-73.49 18.57-113.28 36.93v33.21c12.47 6.12 25.02 12.81 37.5 20.02 34.44 19.88 65.67 42.12 91.52 64.95-25.85 22.83-57.08 45.07-91.52 64.95-12.48 7.21-25.03 13.9-37.5 20.02v33.21c39.79 18.36 78.77 31.14 113.28 36.93 13.45 2.26 25.91 3.37 37.3 3.37 34.81 0 59.54-10.41 71.12-30.48 15.38-26.63 4.47-64.79-30.73-107.45-5.64-6.84-11.81-13.7-18.47-20.55zm-120-90.93c-5.83-3.37-11.68-6.63-17.54-9.78 29.4-12.04 57.74-20.53 83.28-24.82 12.07-2.02 23.12-3.01 32.91-3.01 22.76 0 38.69 5.35 44.57 15.54 8.41 14.57-2.01 42-27.89 73.36-5.18 6.29-10.87 12.6-17.01 18.91-27.78-24.81-61.37-48.87-98.32-70.2zm143.22 203.93c-8.41 14.57-37.37 19.25-77.48 12.53-25.54-4.29-53.88-12.78-83.28-24.82 5.86-3.15 11.71-6.41 17.54-9.78 36.95-21.33 70.54-45.39 98.32-70.2 6.14 6.31 11.83 12.62 17.01 18.91 25.88 31.36 36.3 58.79 27.89 73.36z" fill="#ff7d47"/><path d="m256 294.84v-77.68c21.42 0 38.84 17.42 38.84 38.84s-17.42 38.84-38.84 38.84z" fill="#2b4747"/></svg>