<svg height="512pt" viewBox="-1 0 512 512" width="512pt" xmlns="http://www.w3.org/2000/svg"><path d="m245 300h-220c-8.285156 0-15 6.714844-15 15s6.714844 15 15 15h5v35.429688c3.835938-.6875 206.28125-.664063 210 0v-35.429688h5c8.285156 0 15-6.714844 15-15s-6.714844-15-15-15zm0 0" fill="#e8efff"/><path d="m260 315c0 8.28125-6.71875 15-15 15h-5v35.429688c-1.859375-.328126-53.429688-.5-105-.507813v-64.921875h110c8.28125 0 15 6.71875 15 15zm0 0" fill="#ccdfff"/><path d="m167.910156 265c-10.238281 30.371094-16.519531 63.339844-17.699218 98h-30.019532c1.058594-35.25 6.859375-66.828125 16.507813-98.988281zm0 0" fill="#f9e14e"/><path d="m167.910156 265c-10.238281 30.371094-16.519531 63.339844-17.699218 98h-15.210938v-93.179688c.550781-1.929687 1.121094-3.871093 1.699219-5.808593zm0 0" fill="#ffbf00"/><path d="m158.171875 300c-4.472656 20.191406-7.222656 41.261719-7.960937 63h-30.019532c.660156-22.089844 3.1875-42.738281 7.359375-63zm0 0" fill="#ffc543"/><path d="m158.171875 300c-4.261719 19.261719-6.960937 39.320312-7.84375 60-.046875 1-.089844 2-.117187 3h-15.210938v-63zm0 0" fill="#f90"/><path d="m495 0c-171.0625 0-314.871094 114.382812-360.089844 269.980469 19.15625.027343 25.195313.019531 120.089844.019531 33.089844 0 65.28125-6.25 95.671875-18.558594 5.648437-2.292968 9.328125-7.800781 9.328125-13.890625v-44.519531l34.878906 23.25c5.390625 3.597656 12.492188 3.320312 17.589844-.691406 59.792969-46.988282 97.511719-119.660156 97.53125-200.53125 0-8.289063-6.710938-15.058594-15-15.058594zm0 0" fill="#49545b"/><path d="m235 512h-200c-19.300781 0-35-15.699219-35-35v-82c0-19.300781 15.699219-35 35-35h200c19.300781 0 35 15.699219 35 35v82c0 19.300781-15.699219 35-35 35zm0 0" fill="#40b4f9"/><path d="m240 360.359375c-1.628906-.238281-3.300781-.359375-5-.359375h-100v152h100c19.300781 0 35-15.699219 35-35v-82c0-17.601562-13.058594-32.210938-30-34.640625zm0 0" fill="#0097f1"/></svg>