<svg id="Capa_1" enable-background="new 0 0 512 512" height="512" viewBox="0 0 512 512" width="512" xmlns="http://www.w3.org/2000/svg"><path d="m299.562 391.379-294.057-240.416c-3.484-2.849-5.505-7.112-5.505-11.613v-124.35c0-8.284 6.716-15 15-15h124.351c4.501 0 8.764 2.021 11.613 5.505l240.416 294.056z" fill="#c3e6f2"/><path d="m345.47 345.47-45.909 45.909-294.056-240.416c-3.484-2.849-5.505-7.112-5.505-11.613v-124.35c0-4.142 1.679-7.892 4.393-10.606z" fill="#aac8dc"/><path d="m355.018 333.805-261.63-261.63c-5.857-5.858-15.355-5.858-21.213 0s-5.858 15.355 0 21.213l261.629 261.629z" fill="#aac8dc"/><path d="m333.805 355.018-261.63-261.63c-5.858-5.858-5.858-15.355 0-21.213l272.236 272.236z" fill="#96b4c8"/><path d="m492.962 492.962c-25.384 25.384-66.54 25.384-91.924 0l-98.018-98.018 91.924-91.924 98.018 98.018c25.384 25.384 25.384 66.54 0 91.924z" fill="#ffd737"/><path d="m303.021 394.944 45.962-45.962 143.979 143.98c-25.384 25.384-66.54 25.384-91.924 0z" fill="#fab900"/><path d="m280.772 423.051c3.839 0 7.677-1.464 10.606-4.394l127.279-127.279c5.858-5.858 5.858-15.355 0-21.213-5.857-5.858-15.355-5.857-21.213 0l-127.278 127.279c-5.858 5.858-5.858 15.355 0 21.213 2.928 2.929 6.768 4.394 10.606 4.394z" fill="#fff05f"/><path d="m291.378 418.657c-2.929 2.929-6.767 4.394-10.606 4.394-3.838 0-7.678-1.465-10.607-4.394-5.858-5.858-5.858-15.355 0-21.213l63.639-63.64 21.213 21.213z" fill="#ffd737"/><path d="m120.621 299.562 240.416-294.057c2.849-3.484 7.111-5.505 11.612-5.505h124.351c8.284 0 15 6.716 15 15v124.35c0 4.501-2.021 8.764-5.505 11.613l-294.057 240.416z" fill="#e1f8ff"/><path d="m166.53 345.47 45.909 45.909 294.056-240.417c3.484-2.849 5.505-7.112 5.505-11.613v-124.349c0-4.142-1.679-7.892-4.393-10.606z" fill="#c3e6f2"/><path d="m156.982 333.805 261.63-261.63c5.857-5.858 15.355-5.858 21.213 0s5.858 15.355 0 21.213l-261.63 261.63z" fill="#c3e6f2"/><path d="m178.195 355.018 261.63-261.63c5.858-5.858 5.858-15.355 0-21.213l-272.236 272.236z" fill="#afd2e4"/><path d="m19.038 401.038 98.018-98.018 91.924 91.924-98.018 98.018c-25.384 25.384-66.54 25.384-91.924 0-25.384-25.384-25.384-66.54 0-91.924z" fill="#ffd737"/><path d="m208.979 394.944-45.962-45.962-143.979 143.98c25.384 25.384 66.54 25.384 91.924 0z" fill="#fab900"/><path d="m231.228 423.051c-3.839 0-7.677-1.464-10.606-4.394l-127.279-127.279c-5.858-5.858-5.858-15.355 0-21.213 5.857-5.858 15.355-5.857 21.213 0l127.279 127.279c5.858 5.858 5.858 15.355 0 21.213-2.929 2.929-6.769 4.394-10.607 4.394z" fill="#fff05f"/><path d="m220.622 418.657c2.929 2.929 6.767 4.394 10.606 4.394 3.838 0 7.678-1.465 10.607-4.394 5.858-5.858 5.858-15.355 0-21.213l-63.639-63.64-21.213 21.213z" fill="#ffd737"/></svg>