<?xml version="1.0" encoding="iso-8859-1"?>
<!-- Generator: Adobe Illustrator 19.0.0, SVG Export Plug-In . SVG Version: 6.00 Build 0)  -->
<svg xmlns="http://www.w3.org/2000/svg" xmlns:xlink="http://www.w3.org/1999/xlink" version="1.1" id="Capa_1" x="0px" y="0px" viewBox="0 0 460 460" style="enable-background:new 0 0 460 460;" xml:space="preserve" width="512" height="512">
<g id="XMLID_1836_">
	<path id="XMLID_1835_" style="fill:#6F2917;" d="M301.76,126.8l26.834-35.6c0.536-0.711,0.536-1.689,0-2.4L301.76,53.2   c-0.994-1.318-0.048-3.2,1.608-3.2H419.95C425.5,50,430,54.477,430,60v60c0,5.523-4.5,10-10.05,10H303.368   C301.712,130,300.766,128.118,301.76,126.8z"/>
	<path id="XMLID_1832_" style="fill:#495559;" d="M401.856,20v420c0,11.046-8.999,20-20.1,20H74.223c-2.775,0-5.025-2.239-5.025-5   v-5h-10.05v5c0,2.761-2.25,5-5.025,5H50.1c-11.101,0-20.1-8.954-20.1-20V20C30,8.954,38.999,0,50.1,0h4.022   c2.775,0,5.025,2.239,5.025,5v5h10.05V5c0-2.761,2.25-5,5.025-5h307.533C392.857,0,401.856,8.954,401.856,20z"/>
	<path id="XMLID_1831_" style="fill:#64757C;" d="M59.097,70h332.759c5.523,0,10,4.477,10,10v180c0,5.523-4.477,10-10,10H59.097   c-5.523,0-10-4.477-10-10V80C49.097,74.477,53.574,70,59.097,70z M281.204,410h70.451c5.523,0,10-4.477,10-10v0   c0-5.523-4.477-10-10-10h-70.451c-5.523,0-10,4.477-10,10v0C271.204,405.523,275.681,410,281.204,410z M210.853,370h140.803   c5.523,0,10-4.477,10-10v0c0-5.523-4.477-10-10-10H210.853c-5.523,0-10,4.477-10,10v0C200.853,365.523,205.33,370,210.853,370z"/>
	<path id="XMLID_86_" style="fill:#B04230;" d="M301.76,106.8l26.834-35.6c0.536-0.711,0.536-1.689,0-2.4L301.76,33.2   c-0.994-1.318-0.048-3.2,1.608-3.2H419.95C425.5,30,430,34.477,430,40v70H303.368C301.712,110,300.766,108.118,301.76,106.8z"/>
	<path id="XMLID_1829_" style="fill:#374145;" d="M74.223,0h5.025v460h-5.025c-2.775,0-5.025-2.239-5.025-5v-5h-10.05v5   c0,2.761-2.25,5-5.025,5H40.05C34.5,460,30,455.523,30,450V10c0-5.523,4.5-10,10.05-10h14.072c2.775,0,5.025,2.239,5.025,5v5h10.05   V5C69.197,2.239,71.447,0,74.223,0z"/>
	<path id="XMLID_1821_" style="fill:#293235;" d="M69.197,455h-10.05V5h10.05V455z"/>
</g>















</svg>
