<svg id="Layer_1" enable-background="new 0 0 512 512" height="512" viewBox="0 0 512 512" width="512" xmlns="http://www.w3.org/2000/svg"><path d="m427.28 84.72c-45.7-45.7-106.44-70.89-171.05-70.95h-.23c-64.7 0-125.53 25.2-171.28 70.95s-70.95 106.58-70.95 171.28 25.2 125.53 70.95 171.28 106.58 70.95 171.28 70.95h.23c64.61-.06 125.35-25.25 171.05-70.95 45.75-45.75 70.95-106.58 70.95-171.28s-25.2-125.53-70.95-171.28z" fill="#2a5959"/><path d="m498.23 256c0 64.7-25.2 125.53-70.95 171.28-45.7 45.7-106.44 70.89-171.05 70.95v-484.46c64.61.06 125.35 25.25 171.05 70.95 45.75 45.75 70.95 106.58 70.95 171.28z" fill="#2b4747"/><path d="m437.02 74.98c-48.3-48.3-112.5-74.92-180.79-74.98h-.23c-68.38 0-132.67 26.63-181.02 74.98s-74.98 112.64-74.98 181.02 26.63 132.67 74.98 181.02 112.64 74.98 181.02 74.98h.23c68.29-.06 132.49-26.68 180.79-74.98 48.35-48.35 74.98-112.64 74.98-181.02s-26.63-132.67-74.98-181.02zm-21.21 340.82c-42.64 42.64-99.3 66.14-159.58 66.2h-.23c-60.37 0-117.12-23.51-159.81-66.2-42.68-42.68-66.19-99.43-66.19-159.8s23.51-117.12 66.19-159.81c42.69-42.68 99.44-66.19 159.81-66.19h.23c60.28.06 116.94 23.56 159.58 66.19 42.68 42.69 66.19 99.44 66.19 159.81s-23.51 117.12-66.19 159.8z" fill="#ff5c5c"/><circle cx="256.23" cy="255.97" fill="#fff" r="179.2"/><path d="m256.23 435.17v-358.4c98.81 0 179.2 80.39 179.2 179.2s-80.39 179.2-179.2 179.2z" fill="#c8ffff"/><g fill="#2a5959"><path d="m306.23 255.97c0 8.28-6.72 15-15 15h-35c-8.28 0-15-6.72-15-15v-57.35c0-8.28 6.72-15 15-15s15 6.72 15 15v42.35h20c8.28 0 15 6.72 15 15z"/><path d="m271.23 362.76v20.09c0 8.29-6.72 15-15 15s-15-6.71-15-15v-20.09c0-8.28 6.72-15 15-15s15 6.72 15 15z"/><path d="m271 125.04v20.1c0 8.2-6.59 14.87-14.77 14.99-.08.01-.15.01-.23.01-8.28 0-15-6.72-15-15v-20.1c0-8.28 6.72-15 15-15 .08 0 .15 0 .23.01 8.18.12 14.77 6.79 14.77 14.99z"/><path d="m167.479 255.999c0-8.284-6.716-15-15-15h-20.093c-8.284 0-15 6.716-15 15s6.716 15 15 15h20.093c8.284 0 15-6.716 15-15z"/></g><path d="m381.711 240.97h-20.093c-8.284 0-15 6.716-15 15s6.716 15 15 15h20.093c8.284 0 15-6.716 15-15s-6.715-15-15-15z" fill="#2b4747"/><path d="m344.018 320.862c-5.857-5.858-15.355-5.858-21.213 0s-5.858 15.355 0 21.213l14.208 14.208c2.929 2.929 6.768 4.394 10.606 4.394s7.678-1.464 10.606-4.394c5.858-5.858 5.858-15.355 0-21.213z" fill="#2b4747"/><path d="m168.76 188.353c2.929 2.929 6.768 4.393 10.606 4.393s7.678-1.465 10.607-4.394c5.857-5.858 5.857-15.355 0-21.213l-14.208-14.208c-5.858-5.857-15.355-5.857-21.213 0-5.857 5.858-5.857 15.355 0 21.213z" fill="#2a5959"/><path d="m173.951 318.733-14.208 14.208c-5.858 5.858-5.858 15.355 0 21.213 2.929 2.929 6.768 4.394 10.607 4.394 3.838 0 7.678-1.465 10.606-4.393l14.208-14.208c5.858-5.858 5.858-15.355 0-21.213s-15.355-5.858-21.213-.001z" fill="#2a5959"/><path d="m332.42 196.436c3.839 0 7.678-1.464 10.606-4.394l14.208-14.208c5.858-5.858 5.858-15.355 0-21.213-5.857-5.858-15.355-5.858-21.213 0l-14.208 14.208c-5.858 5.858-5.858 15.355 0 21.213 2.93 2.929 6.769 4.394 10.607 4.394z" fill="#2b4747"/><path d="m512 256c0 68.38-26.63 132.67-74.98 181.02-48.3 48.3-112.5 74.92-180.79 74.98v-30c60.28-.06 116.94-23.56 159.58-66.2 42.68-42.68 66.19-99.43 66.19-159.8s-23.51-117.12-66.19-159.81c-42.64-42.63-99.3-66.13-159.58-66.19v-30c68.29.06 132.49 26.68 180.79 74.98 48.35 48.35 74.98 112.64 74.98 181.02z" fill="#e20059"/><path d="m256.23 160.13v-50.08c8.18.12 14.77 6.79 14.77 14.99v20.1c0 8.2-6.59 14.87-14.77 14.99z" fill="#2b4747"/><path d="m271.23 362.76v20.09c0 8.29-6.72 15-15 15v-50.09c8.28 0 15 6.72 15 15z" fill="#2b4747"/><path d="m306.23 255.97c0 8.28-6.72 15-15 15h-35v-87.35c8.28 0 15 6.72 15 15v42.35h20c8.28 0 15 6.72 15 15z" fill="#2b4747"/></svg>