<svg id="Layer_1" enable-background="new 0 0 512 512" height="512" viewBox="0 0 512 512" width="512" xmlns="http://www.w3.org/2000/svg"><path d="m482 124.435c0 5.52-3.026 10.58-7.884 13.199l-108.887 58.688c-2.194 1.19-4.648 1.8-7.143 1.8l-102.096-29.999-102.075 29.999c-2.495 0-4.949-.61-7.143-1.8l-108.888-58.687c-4.859-2.62-7.884-7.68-7.884-13.199 0-5.51 3.025-10.58 7.884-13.189l196.016-105.657c6.912-3.73 14.496-5.59 22.09-5.59s15.188 1.86 22.11 5.59l196.016 105.656c4.858 2.61 7.884 7.679 7.884 13.189z" fill="#2a5959"/><path d="m482 124.435c0 5.52-3.026 10.58-7.884 13.199l-108.887 58.688c-2.194 1.19-4.648 1.8-7.143 1.8l-102.096-29.999v-168.123c7.594 0 15.188 1.86 22.11 5.59l196.016 105.656c4.858 2.61 7.884 7.679 7.884 13.189z" fill="#2b4747"/><path d="m372.682 228.831c-2.314 1.32-4.879 1.96-7.423 1.96-3.466 0-6.902-1.19-9.678-3.52l-50.011-41.988-49.57-4.43h-.01l-48.588 4.43-51.103 42.078c-4.829 3.98-11.621 4.55-17.051 1.43-5.43-3.11-8.355-9.25-7.343-15.419l10.409-63.628c2.785-18.139 16.44-34.329 38.46-45.598 20.557-10.52 46.554-16.079 75.216-16.079h.01c29.103 0 55.06 5.24 75.076 15.159 22.22 11.02 35.925 27.559 38.62 46.608l10.389 63.537c1.012 6.2-1.943 12.36-7.403 15.46z" fill="#2b4747"/><path d="m372.682 228.831c-2.314 1.32-4.879 1.96-7.423 1.96-3.466 0-6.902-1.19-9.678-3.52l-50.011-41.988-49.57-4.43h-.01v-92.786h.01c29.103 0 55.06 5.24 75.076 15.159 22.22 11.02 35.925 27.559 38.62 46.608l10.389 63.537c1.012 6.2-1.943 12.36-7.403 15.46z" fill="#18302f"/><path d="m256.03 158.494h-.04c-.01 0-.01 0-.02 0-97.627.01-177.061 79.297-177.061 176.753 0 97.466 79.444 176.753 177.081 176.753h.01c48.819 0 93.089-19.829 125.147-51.838 32.068-31.999 51.924-76.187 51.924-124.915 0-97.446-79.414-176.733-177.041-176.753zm-39.121 35.258c-10.189 12.669-21.539 28.709-31.407 47.258h-42.136c18.904-22.479 44.43-39.228 73.543-47.258zm-93.099 77.257h48.187c-5.67 15.389-9.818 31.919-11.371 49.238h-50.902c1.794-17.499 6.673-34.098 14.086-49.238zm0 128.475c-7.413-15.139-12.292-31.739-14.086-49.238h50.902c1.553 17.319 5.7 33.849 11.371 49.238zm19.556 29.999h42.136c9.868 18.549 21.218 34.589 31.407 47.258-29.113-8.029-54.639-24.779-73.543-47.258zm97.597 29.109c-6.632-8.21-13.855-18.029-20.728-29.109h20.728zm0-59.108h-36.556c-6.632-15.239-11.671-31.839-13.575-49.238h50.131zm0-79.237h-50.131c1.923-17.379 6.983-33.989 13.635-49.238h36.496zm0-79.236h-20.647c6.842-11.04 14.046-20.829 20.647-29.029zm147.207 29.998c7.423 15.139 12.302 31.739 14.086 49.238h-50.882c-1.553-17.319-5.7-33.849-11.371-49.238zm-19.556-29.998h-42.116c-9.868-18.549-21.218-34.579-31.397-47.248 29.103 8.019 54.619 24.779 73.513 47.248zm-97.597-29.129c6.642 8.21 13.875 18.039 20.748 29.129h-20.748zm0 59.127h36.576c6.632 15.239 11.671 31.839 13.575 49.238h-50.151zm0 79.237h50.151c-1.923 17.379-6.983 33.989-13.635 49.238h-36.516zm0 108.286v-29.049h20.667c-6.852 11.05-14.055 20.849-20.667 29.049zm24.084 18.199c10.178-12.669 21.529-28.699 31.397-47.248h42.116c-18.894 22.469-44.41 39.229-73.513 47.248zm93.069-77.247h-48.167c5.67-15.389 9.818-31.919 11.371-49.238h50.882c-1.784 17.5-6.663 34.099-14.086 49.238z" fill="#c8ffff"/><path d="m256.03 158.494h-.04v353.506h.01c48.819 0 93.089-19.829 125.147-51.838 32.068-31.999 51.924-76.187 51.924-124.915 0-97.446-79.414-176.733-177.041-176.753zm132.14 112.515c7.423 15.139 12.302 31.739 14.086 49.238h-50.882c-1.553-17.319-5.7-33.849-11.371-49.238zm-19.556-29.998h-42.116c-9.868-18.549-21.218-34.579-31.397-47.248 29.103 8.019 54.619 24.779 73.513 47.248zm-97.597-29.129c6.642 8.21 13.875 18.039 20.748 29.129h-20.748zm0 59.127h36.576c6.632 15.239 11.671 31.839 13.575 49.238h-50.151zm0 79.237h50.151c-1.923 17.379-6.983 33.989-13.635 49.238h-36.516zm0 108.286v-29.049h20.667c-6.852 11.05-14.055 20.849-20.667 29.049zm24.084 18.199c10.178-12.669 21.529-28.699 31.397-47.248h42.116c-18.894 22.469-44.41 39.229-73.513 47.248zm93.069-77.247h-48.167c5.67-15.389 9.818-31.919 11.371-49.238h50.882c-1.784 17.5-6.663 34.099-14.086 49.238z" fill="#98f9ff"/></svg>